# xmcd
#
# Track frame offsets:
#	150
#	18587
#	35827
#	53507
#	73477
#	94722
#	116667
#	137225
#	155450
#	175887
#	193240
#	211272
#
# Disc length: 3075 seconds
#
# Revision: 1
# Processed by: cddbd v1.5.1PL0 Copyright (c) Steve Scherf et al.
# Submitted via: CDex 1.50Beta5
#
DISCID=b20c010c
DTITLE=WINDS - WINDS 3rd
DYEAR=1995
DGENRE=
TTITLE0=ときめいているよ
TTITLE1=Nobody
TTITLE2=愛するなら
TTITLE3=END
TTITLE4=Down Down
TTITLE5=冬の気配
TTITLE6=朝焼け
TTITLE7=僕のために
TTITLE8=Loves again for me
TTITLE9=君が抱きたい
TTITLE10=一人ぼっちの夕暮れ
TTITLE11=情熱をなくさないで
EXTD=
EXTT0=
EXTT1=
EXTT2=
EXTT3=
EXTT4=
EXTT5=
EXTT6=
EXTT7=
EXTT8=
EXTT9=
EXTT10=
EXTT11=
PLAYORDER=
